<svg id="Layer_1" data-name="Layer 1" xmlns="http://www.w3.org/2000/svg" viewBox="0 0 40 40"><title>Artboard 100132</title><path d="M32.08,7A19.79,19.79,0,0,0,18.94,2.28,19.77,19.77,0,0,0,5.74,7.09a14.93,14.93,0,0,0-5.13,9C-.24,21.83,1.92,26.35,6.19,30,7.9,31.45,8,31.44,7.08,33.5c-.45,1-1.06,2-1.59,3-.19.33-.4.64-.73,1.18l.79,0a11.49,11.49,0,0,0,8-3,1.85,1.85,0,0,1,1.34-.57,2.25,2.25,0,0,1,.44,0,24.05,24.05,0,0,0,3.74.3,19.87,19.87,0,0,0,6.6-1.09l.08-.34c.25-1.07.56-2.1.86-3.07a3.54,3.54,0,0,1,.86-1.35l6.84-6.84a4,4,0,0,1,2.87-1.22h.09A14.94,14.94,0,0,0,32.08,7ZM35.94,19.2a5.5,5.5,0,0,0-2.66,1.51L31,23q-2.3,2.28-4.6,4.6a5.18,5.18,0,0,0-1.22,1.95c-.28.93-.54,1.79-.77,2.68A18.76,18.76,0,0,1,19.1,33a23.56,23.56,0,0,1-3.5-.28,4.08,4.08,0,0,0-.68-.06,3.33,3.33,0,0,0-2.34,1,9.78,9.78,0,0,1-5.13,2.49,21.58,21.58,0,0,0,1-2c1.11-2.61.94-3.33-1.19-5.14l-.11-.1C3,25.32,1.37,21.23,2.09,16.36A13.4,13.4,0,0,1,6.74,8.21a18.38,18.38,0,0,1,12.2-4.43A18.16,18.16,0,0,1,31.09,8.17,13.57,13.57,0,0,1,35.94,19.2Z"/><path d="M14.07,18.43a3.33,3.33,0,0,1-3.26,3.17h-.05A3.27,3.27,0,0,1,7.6,18.31a3.19,3.19,0,0,1,3.2-3.16h.11a3.28,3.28,0,0,1,3.16,3.28Z"/><path d="M39,26.1c-.43.49-.92.95-1.4,1.43-1.69,1.69-3.42,3.39-5.1,5.1a3.69,3.69,0,0,1-2,1.17c-.7.15-1.37.42-2.07.58l-.31,0c-.53,0-.78-.36-.63-1,.08-.31.15-.61.25-.9.17-.69.38-1.36.6-2a1.8,1.8,0,0,1,.41-.63C31,27.58,33.33,25.31,35.61,23a2.18,2.18,0,0,1,1.29-.66,1.09,1.09,0,0,1,.31,0h0A2.28,2.28,0,0,1,39,26.1Z"/><path d="M30.26,18.31a3.25,3.25,0,0,1-3.14,3.29h-.07a3.3,3.3,0,0,1-3.23-3.14,3.17,3.17,0,0,1,.89-2.29,3.3,3.3,0,0,1,2.29-1h.08A3.16,3.16,0,0,1,30.26,18.31Z"/><path d="M22.16,18.36a3.22,3.22,0,1,1-6.44,0,3.22,3.22,0,1,1,6.44,0Z"/></svg>