<svg id="Layer_1" data-name="Layer 1" xmlns="http://www.w3.org/2000/svg" viewBox="0 0 40 40"><title>Artboard 100134</title><path d="M13.1,33.71a7.16,7.16,0,0,1,3-5.65,5.76,5.76,0,0,1-1.3-5.79c.08-.28-.31-.84-.63-1.07-3.84-2.83-9.71-.4-10.58,4.36-.07.41-.13.82-.21,1.28H.91C.42,24,2.05,21.18,5.76,18.33c-3-3.8-3-7.56,0-10.23A6.82,6.82,0,0,1,15,8.15c2.89,2.69,2.86,6.49-.12,10.19l1.77,1.36a5.67,5.67,0,0,1,6.54,0L25,18.36C22,14.5,22,10.77,25,8.09a6.83,6.83,0,0,1,9.29.06c2.87,2.68,2.84,6.51-.14,10.21a9.85,9.85,0,0,1,5.05,8.47H36.54c-.07-.41-.13-.83-.2-1.24a6.92,6.92,0,0,0-10.47-4.51,1.26,1.26,0,0,0-.66,1.66c.55,1.83.14,3.17-1.33,5.32a7.28,7.28,0,0,1,2.92,5.6H24.63a21,21,0,0,0-2.53-3.33,3.87,3.87,0,0,0-2.51-.62c-2,0-3.3,1.43-3.86,4ZM10.3,17.25a4.05,4.05,0,0,0,4.15-4.09A4.11,4.11,0,0,0,10.34,9a4.17,4.17,0,0,0-4.17,4.11A4.11,4.11,0,0,0,10.3,17.25Zm19.32,0a4.1,4.1,0,0,0,4.11-4.14,4.14,4.14,0,0,0-8.28.07A4.06,4.06,0,0,0,29.62,17.25ZM20,26.91a2.77,2.77,0,1,0-2.77-2.77A2.8,2.8,0,0,0,20,26.91Z"/></svg>