<svg id="Layer_1" data-name="Layer 1" xmlns="http://www.w3.org/2000/svg" viewBox="0 0 40 40"><title>Artboard 100133</title><path d="M24.39,26.34c-4.24,2.61-6.12,6.51-5.87,11.59H2.2c.18-3.73-.15-7.56.64-11.13,1.68-7.57,10.63-10.84,17-6.56a6.64,6.64,0,0,1,2.71,3.15A17.93,17.93,0,0,0,24.39,26.34Z"/><path d="M13.65,2a6.47,6.47,0,0,1,6.47,6.6,6.56,6.56,0,0,1-6.55,6.57A6.6,6.6,0,0,1,7.16,8.63,6.51,6.51,0,0,1,13.65,2Z"/><path d="M37.74,38h-16c-.42-3.51.57-6.38,3.43-8.35A7.54,7.54,0,0,1,34,29.44C37.05,31.36,38.09,34.32,37.74,38Z"/><path d="M29.63,25a4.92,4.92,0,1,1,5-4.87A4.91,4.91,0,0,1,29.63,25Z"/></svg>