<svg id="Layer_1" data-name="Layer 1" xmlns="http://www.w3.org/2000/svg" viewBox="0 0 40 40"><title>Artboard 100136</title><path d="M32.08,7C24.94.68,12.87.69,5.74,7.09a14.93,14.93,0,0,0-5.13,9C-.24,21.83,1.92,26.35,6.19,30,7.9,31.45,8,31.44,7.08,33.5c-.45,1-1.06,2-1.59,3-.19.33-.4.64-.73,1.18a11.62,11.62,0,0,0,8.82-3,1.9,1.9,0,0,1,1.78-.53,21.24,21.24,0,0,0,10.34-.79l.08-.34c.25-1.07.56-2.1.86-3.07a3.54,3.54,0,0,1,.86-1.35l6.84-6.84a4,4,0,0,1,2.87-1.22h.09A14.94,14.94,0,0,0,32.08,7ZM10.78,20.1A1.76,1.76,0,0,1,9.1,18.33a1.71,1.71,0,0,1,1.76-1.68,1.79,1.79,0,0,1,1.71,1.76A1.82,1.82,0,0,1,10.78,20.1Zm8.15,0a1.76,1.76,0,0,1-1.71-1.74,1.72,1.72,0,1,1,3.44,0A1.76,1.76,0,0,1,18.93,20.1Zm8.17,0a1.81,1.81,0,0,1-1.79-1.69A1.78,1.78,0,0,1,27,16.65a1.68,1.68,0,0,1,1.74,1.68A1.73,1.73,0,0,1,27.1,20.1Z"/><path d="M39,26.1c-.43.49-.92.95-1.4,1.43-1.69,1.69-3.42,3.39-5.1,5.1a3.69,3.69,0,0,1-2,1.17c-.7.15-1.37.42-2.07.58l-.31,0c-.53,0-.78-.36-.63-1,.08-.31.15-.61.25-.9.17-.69.38-1.36.6-2a1.8,1.8,0,0,1,.41-.63C31,27.58,33.33,25.31,35.61,23a2.18,2.18,0,0,1,1.29-.66,1.09,1.09,0,0,1,.31,0h0A2.28,2.28,0,0,1,39,26.1Z"/></svg>