<svg id="Layer_1" data-name="Layer 1" xmlns="http://www.w3.org/2000/svg" viewBox="0 0 40 40"><defs><style>.cls-1{fill:#ffc4c4;}.cls-2{fill:#ee6983;}.cls-3{fill:#fff5e4;}</style></defs><title>Artboard 100135</title><path class="cls-1" d="M32.53,22.53v7.76H7.47V22.53A12.53,12.53,0,0,1,18.18,10.15,10.91,10.91,0,0,1,20,10,12.55,12.55,0,0,1,32.53,22.53Z"/><path class="cls-2" d="M28.88,22.53v7.76H7.47V22.53A12.53,12.53,0,0,1,18.18,10.15a12.54,12.54,0,0,1,10.7,12.38Z"/><path class="cls-1" d="M35.62,34.19a3.11,3.11,0,0,1-3.09,3.11H7.47a3.1,3.1,0,0,1,0-6.2H32.53A3.09,3.09,0,0,1,35.62,34.19Z"/><path class="cls-2" d="M31.76,35.31v2H7.47a3.1,3.1,0,0,1,0-6.2H27.55A4.2,4.2,0,0,1,31.76,35.31Z"/><rect class="cls-3" x="18.88" y="2.7" width="2.23" height="4.92" rx="1.12"/><rect class="cls-3" x="30.89" y="6.99" width="2.23" height="4.92" rx="1.12" transform="translate(16.06 -19.86) rotate(45)"/><rect class="cls-3" x="6.98" y="6.99" width="2.23" height="4.92" rx="1.12" transform="translate(-4.31 8.49) rotate(-45)"/><rect class="cls-3" x="34.22" y="17.02" width="4.92" height="2.23" rx="1.12"/><rect class="cls-3" x="0.86" y="17.01" width="4.96" height="2.25" rx="1.13"/></svg>